<svg width="560" height="420" viewBox="0 0 560 420" fill="none" xmlns="http://www.w3.org/2000/svg">
<g clip-path="url(#clip0)">
<path d="M277.78 133.04C307.062 133.04 330.8 109.302 330.8 80.02C330.8 50.7379 307.062 27 277.78 27C248.498 27 224.76 50.7379 224.76 80.02C224.76 109.302 248.498 133.04 277.78 133.04Z" fill="#FFDE83"/>
<path d="M28.76 391.26V243.62L37.53 241.76V160.94L55.42 143.68L73.42 149.83L93.04 124.12L155.28 139.97V72.7601L170.05 73.3001L171.05 58.5601L191.22 72.7601V101.93L202.82 112.93V189.71L246.93 158.85L245.6 140.11C245.6 140.11 218.82 137.4 215.6 132.38L216.6 97.3801L225.01 94.6801V87.3501C225.01 87.3501 227.52 81.4701 241.81 81.3501C241.81 81.3501 245.44 71.6601 277.58 70.8501C277.58 70.8501 305.68 70.4501 311.87 81.3201L324.68 84.5601C324.68 84.5601 329.86 87.7301 326.59 94.6701L335.73 97.3701L337.68 132.37C337.68 132.37 337.46 137.22 305.22 139.63L306.99 166.63L337.68 250.63L347.38 252.1L344.26 127.52H386.26V118.43H399.18V89.2201L437.64 119.05V175.93L464.24 177.56V125.88C464.24 125.88 468.31 121.21 479.3 122.12C490.29 123.03 494.3 125.83 494.3 125.83L494.4 177.18H502.52V240.45L519.13 248.25V391.25L28.76 391.26Z" fill="white"/>
<path d="M44.82 82.85V77.05C44.8333 76.0004 45.1766 74.9817 45.8012 74.1381C46.4258 73.2946 47.3 72.669 48.3 72.35C55.56 70.08 73.05 66.13 90.15 73.7C91.0183 74.0918 91.7538 74.7278 92.2669 75.5303C92.7801 76.3329 93.0487 77.2674 93.04 78.22V82.85" fill="white"/>
<path d="M44.82 82.85V77.05C44.8333 76.0004 45.1766 74.9817 45.8012 74.1381C46.4258 73.2946 47.3 72.669 48.3 72.35C55.56 70.08 73.05 66.13 90.15 73.7C91.0183 74.0918 91.7538 74.7278 92.2669 75.5303C92.7801 76.3329 93.0487 77.2674 93.04 78.22V82.85" stroke="#3A3836" stroke-width="2" stroke-linecap="round" stroke-linejoin="round"/>
<path d="M464.21 177.56V125.88C464.21 125.88 476.72 117.41 494.32 125.88V177.18" fill="white"/>
<path d="M464.21 177.56V125.88C464.21 125.88 476.72 117.41 494.32 125.88V177.18" stroke="#3A3836" stroke-width="2" stroke-linecap="round" stroke-linejoin="round"/>
<path d="M171.04 72.7501V58.5601L191.21 72.7501" fill="white"/>
<path d="M171.04 72.7501V58.5601L191.21 72.7501" stroke="#3A3836" stroke-width="2" stroke-linecap="round" stroke-linejoin="round"/>
<path d="M155.28 72.75H191.21V101.93" fill="white"/>
<path d="M155.28 72.75H191.21V101.93" stroke="#3A3836" stroke-width="2" stroke-linecap="round" stroke-linejoin="round"/>
<path d="M386.23 127.53V118.44H399.15V89.22L437.61 119.04V177.18H502.44V243.41L463.42 242.41V275.17L418.82 273.49L386.23 127.53Z" fill="white" stroke="#3A3836" stroke-width="2" stroke-linecap="round" stroke-linejoin="round"/>
<path d="M276.56 99.2701C297.42 99.2701 314.33 92.8991 314.33 85.0401C314.33 77.181 297.42 70.8101 276.56 70.8101C255.7 70.8101 238.79 77.181 238.79 85.0401C238.79 92.8991 255.7 99.2701 276.56 99.2701Z" fill="white" stroke="#3A3836" stroke-width="2" stroke-linecap="round" stroke-linejoin="round"/>
<path d="M37.53 241.75V160.93L55.42 143.67L105.88 160.93V226.61" stroke="#3A3836" stroke-width="2" stroke-linecap="round" stroke-linejoin="round"/>
<path d="M28.76 391.5V243.61L114.71 225.4V392.38L28.76 391.5Z" fill="white" stroke="#3A3836" stroke-width="2" stroke-linecap="round" stroke-linejoin="round"/>
<path d="M114.71 225.4L155.28 275.17V392.38" fill="white"/>
<path d="M114.71 225.4L155.28 275.17V392.38" stroke="#3A3836" stroke-width="2" stroke-linecap="round" stroke-linejoin="round"/>
<path d="M155.28 250.89L194.88 238V391.26" stroke="#3A3836" stroke-width="2" stroke-linecap="round" stroke-linejoin="round"/>
<path d="M224.99 94.63V89.73C224.99 88.3927 225.437 87.0937 226.259 86.0393C227.082 84.9848 228.233 84.2354 229.53 83.91C242.53 80.64 281.8 72.75 323.16 83.91C324.433 84.2552 325.557 85.0105 326.358 86.059C327.159 87.1075 327.592 88.3907 327.59 89.71V94.71" fill="white"/>
<path d="M224.99 94.63V89.73C224.99 88.3927 225.437 87.0937 226.259 86.0393C227.082 84.9848 228.233 84.2354 229.53 83.91C242.53 80.64 281.8 72.75 323.16 83.91C324.433 84.2552 325.557 85.0105 326.358 86.059C327.159 87.1075 327.592 88.3907 327.59 89.71V94.71" stroke="#3A3836" stroke-width="2" stroke-linecap="round" stroke-linejoin="round"/>
<path d="M215.58 132.35L216.58 97.35C216.58 97.35 273.5 75.35 335.71 97.35L337.66 132.35" fill="white"/>
<path d="M215.58 132.35L216.58 97.35C216.58 97.35 273.5 75.35 335.71 97.35L337.66 132.35" stroke="#3A3836" stroke-width="2" stroke-linecap="round" stroke-linejoin="round"/>
<path d="M276.62 140.54C310.331 140.54 337.66 136.864 337.66 132.33C337.66 127.796 310.331 124.12 276.62 124.12C242.909 124.12 215.58 127.796 215.58 132.33C215.58 136.864 242.909 140.54 276.62 140.54Z" fill="white" stroke="#3A3836" stroke-width="2" stroke-linecap="round" stroke-linejoin="round"/>
<path d="M305.99 158.21L304.99 134.1C286.022 130.768 266.6 130.982 247.71 134.73L246.94 134.88V158.21L243.79 392.35H309.09L305.99 158.21Z" fill="white" stroke="#3A3836" stroke-width="2" stroke-linecap="round" stroke-linejoin="round"/>
<path d="M277.56 70.8101V46.3" stroke="#3A3836" stroke-width="2" stroke-linecap="round" stroke-linejoin="round"/>
<path d="M36.84 99.35L37.3 89.8C37.362 88.352 37.8784 86.9603 38.7758 85.8223C39.6733 84.6843 40.9064 83.8578 42.3 83.46C51.47 80.89 72.49 76.74 94.76 84.27C96.1136 84.7228 97.2944 85.5825 98.141 86.7315C98.9876 87.8806 99.4587 89.2631 99.49 90.69L99.68 99.35" fill="white"/>
<path d="M36.84 99.35L37.3 89.8C37.362 88.352 37.8784 86.9603 38.7758 85.8223C39.6733 84.6843 40.9064 83.8578 42.3 83.46C51.47 80.89 72.49 76.74 94.76 84.27C96.1136 84.7228 97.2944 85.5825 98.141 86.7315C98.9876 87.8806 99.4587 89.2631 99.49 90.69L99.68 99.35" stroke="#3A3836" stroke-width="2" stroke-linecap="round" stroke-linejoin="round"/>
<path d="M68.29 108.93C85.6594 108.93 99.74 104.659 99.74 99.39C99.74 94.1212 85.6594 89.85 68.29 89.85C50.9207 89.85 36.84 94.1212 36.84 99.39C36.84 104.659 50.9207 108.93 68.29 108.93Z" fill="white" stroke="#3A3836" stroke-width="2" stroke-linecap="round" stroke-linejoin="round"/>
<g style="mix-blend-mode:multiply">
<path d="M68.29 108.93C85.6594 108.93 99.74 104.659 99.74 99.39C99.74 94.1212 85.6594 89.85 68.29 89.85C50.9207 89.85 36.84 94.1212 36.84 99.39C36.84 104.659 50.9207 108.93 68.29 108.93Z" fill="#E5E5E5"/>
</g>
<path d="M67.3 146.11V101.74" stroke="#3A3836" stroke-width="2" stroke-linecap="round" stroke-linejoin="round"/>
<path d="M68.93 69.22V56.73" stroke="#3A3836" stroke-width="2" stroke-linecap="round" stroke-linejoin="round"/>
<path d="M428.23 280.19V147.11L399.15 127.53H344.24V255.06L428.23 280.19V392.34Z" fill="white"/>
<path d="M428.23 280.19V147.11L399.15 127.53H344.24V255.06L428.23 280.19ZM428.23 280.19V392.34" stroke="#3A3836" stroke-width="2" stroke-linecap="round" stroke-linejoin="round"/>
<path d="M399.15 127.53V271.49" stroke="#3A3836" stroke-width="2" stroke-linecap="round" stroke-linejoin="round"/>
<path d="M307.09 392.38H463.27" stroke="#3A3836" stroke-width="2" stroke-linecap="round" stroke-linejoin="round"/>
<path d="M241.79 392.38H155.28H114.71" fill="white"/>
<path d="M241.79 392.38H155.28H114.71" stroke="#3A3836" stroke-width="2" stroke-linecap="round" stroke-linejoin="round"/>
<g style="mix-blend-mode:multiply">
<path d="M73.42 149.83L93.05 124.11V155.99L73.42 149.83Z" fill="#E5E5E5"/>
</g>
<path d="M93.04 124.11L73.42 149.83" stroke="#3A3836" stroke-width="2" stroke-linecap="round" stroke-linejoin="round"/>
<path d="M155.28 140.54V72.75L202.81 112.88V207.18" fill="white"/>
<path d="M155.28 140.54V72.75L202.81 112.88V207.18" stroke="#3A3836" stroke-width="2" stroke-linecap="round" stroke-linejoin="round"/>
<path d="M462.85 71.18V67.12C462.848 66.3772 463.084 65.6533 463.523 65.0541C463.962 64.4549 464.581 64.012 465.29 63.79C470.38 62.2 482.63 59.43 494.62 64.73C495.223 65.0131 495.731 65.4633 496.086 66.0269C496.44 66.5906 496.626 67.2441 496.62 67.91V71.18" fill="white"/>
<path d="M462.85 71.18V67.12C462.848 66.3772 463.084 65.6533 463.523 65.0541C463.962 64.4549 464.581 64.012 465.29 63.79C470.38 62.2 482.63 59.43 494.62 64.73C495.223 65.0131 495.731 65.4633 496.086 66.0269C496.44 66.5906 496.626 67.2441 496.62 67.91V71.18" stroke="#3A3836" stroke-width="2" stroke-linecap="round" stroke-linejoin="round"/>
<path d="M457.26 82.78L457.58 76.08C457.627 75.0614 457.995 74.0836 458.63 73.2863C459.266 72.489 460.137 71.9128 461.12 71.64C467.54 69.84 482.28 66.93 497.88 72.21C498.83 72.5256 499.659 73.1276 500.254 73.9333C500.848 74.739 501.179 75.709 501.2 76.71L501.34 82.78" fill="white"/>
<path d="M457.26 82.78L457.58 76.08C457.627 75.0614 457.995 74.0836 458.63 73.2863C459.266 72.489 460.137 71.9128 461.12 71.64C467.54 69.84 482.28 66.93 497.88 72.21C498.83 72.5256 499.659 73.1276 500.254 73.9333C500.848 74.739 501.179 75.709 501.2 76.71L501.34 82.78" stroke="#3A3836" stroke-width="2" stroke-linecap="round" stroke-linejoin="round"/>
<path d="M479.3 89.46C491.472 89.46 501.34 86.4647 501.34 82.77C501.34 79.0752 491.472 76.08 479.3 76.08C467.128 76.08 457.26 79.0752 457.26 82.77C457.26 86.4647 467.128 89.46 479.3 89.46Z" fill="white" stroke="#3A3836" stroke-width="2" stroke-linecap="round" stroke-linejoin="round"/>
<g style="mix-blend-mode:multiply">
<path d="M479.3 89.46C491.472 89.46 501.34 86.4647 501.34 82.77C501.34 79.0752 491.472 76.08 479.3 76.08C467.128 76.08 457.26 79.0752 457.26 82.77C457.26 86.4647 467.128 89.46 479.3 89.46Z" fill="#E5E5E5"/>
</g>
<path d="M480.49 82.74H478.3V122.11H480.49V82.74Z" fill="#3A3836"/>
<path d="M479.39 61.63V49.15" stroke="#3A3836" stroke-width="2" stroke-linecap="round" stroke-linejoin="round"/>
<path d="M365.64 391.26V340.19H382.59V391.26" stroke="#3A3836" stroke-width="2" stroke-linecap="round" stroke-linejoin="round"/>
<path d="M395.64 391.26V320.19H412.59V391.26" stroke="#3A3836" stroke-width="2" stroke-linecap="round" stroke-linejoin="round"/>
<path d="M335.64 391.26V364.64H352.59V391.26" stroke="#3A3836" stroke-width="2" stroke-linecap="round" stroke-linejoin="round"/>
<path d="M554.36 392.74C554.36 389.168 552.941 385.741 550.415 383.215C547.889 380.689 544.462 379.27 540.89 379.27H539.37C539.37 379.27 540.12 361.83 525.29 360.27C525.29 360.27 526.73 345.74 509.81 344.09V342.43C509.811 341.699 509.668 340.975 509.39 340.299C509.111 339.623 508.701 339.009 508.185 338.492C507.669 337.975 507.055 337.564 506.38 337.284C505.705 337.004 504.981 336.86 504.25 336.86H490.31V392.74" fill="#A2ECC2"/>
<g style="mix-blend-mode:multiply">
<path d="M28.76 391.34L114.71 392.34V228.37L28.76 243.37V391.34Z" fill="#E5E5E5"/>
</g>
<path d="M82.33 392.52C82.33 385.45 76.72 378.69 69.74 378.44C69.74 378.26 69.74 378.08 69.74 377.89C69.763 374.168 68.5028 370.552 66.1717 367.65C63.8405 364.748 60.5807 362.739 56.9412 361.959C53.3017 361.179 49.5047 361.678 46.1895 363.37C42.8744 365.062 40.2435 367.845 38.74 371.25C36.6497 369.651 34.2002 368.588 31.6049 368.153C29.0096 367.718 26.3473 367.924 23.8498 368.753C21.3524 369.582 19.0956 371.009 17.276 372.91C15.4564 374.812 14.1292 377.129 13.41 379.66C10.6128 380.402 8.14015 382.05 6.37809 384.346C4.61603 386.641 3.66378 389.456 3.67001 392.35" fill="#A2ECC2"/>
<path d="M501.61 239.09L517.8 248.36L519.05 392.31L461.05 392.54L461.62 240.58L501.61 239.09Z" fill="white" stroke="#3A3836" stroke-width="2" stroke-linecap="round" stroke-linejoin="round"/>
<path d="M103.37 241.58L38.53 254.58V262.64L103.37 249.64V241.58Z" fill="#D1DAFA" stroke="#3A3836" stroke-width="1.74" stroke-linecap="round" stroke-linejoin="round"/>
<path d="M103.37 259.58L38.53 271.58V279.64L103.37 267.64V259.58Z" fill="#D1DAFA" stroke="#3A3836" stroke-width="1.74" stroke-linecap="round" stroke-linejoin="round"/>
<path d="M103.37 277.58L38.53 289.58V297.64L103.37 285.64V277.58Z" fill="#D1DAFA" stroke="#3A3836" stroke-width="1.74" stroke-linecap="round" stroke-linejoin="round"/>
<path d="M55.42 143.67V237.4" stroke="#3A3836" stroke-width="2" stroke-linecap="round" stroke-linejoin="round"/>
<path d="M502.44 239.4V391.77" stroke="#3A3836" stroke-width="2" stroke-linecap="round" stroke-linejoin="round"/>
<path d="M168.39 110.93H162.48V124.66H168.39V110.93Z" fill="#D1DAFA" stroke="#3A3836" stroke-width="1.74" stroke-linecap="round" stroke-linejoin="round"/>
<path d="M181.39 110.93H175.48V124.66H181.39V110.93Z" fill="#D1DAFA" stroke="#3A3836" stroke-width="1.74" stroke-linecap="round" stroke-linejoin="round"/>
<path d="M168.39 133.93H162.48V147.66H168.39V133.93Z" fill="#D1DAFA" stroke="#3A3836" stroke-width="1.74" stroke-linecap="round" stroke-linejoin="round"/>
<path d="M181.39 133.93H175.48V147.66H181.39V133.93Z" fill="#D1DAFA" stroke="#3A3836" stroke-width="1.74" stroke-linecap="round" stroke-linejoin="round"/>
<path d="M168.39 155.93H162.48V169.66H168.39V155.93Z" fill="#D1DAFA" stroke="#3A3836" stroke-width="1.74" stroke-linecap="round" stroke-linejoin="round"/>
<path d="M181.39 155.93H175.48V169.66H181.39V155.93Z" fill="#D1DAFA" stroke="#3A3836" stroke-width="1.74" stroke-linecap="round" stroke-linejoin="round"/>
<path d="M168.39 175.93H162.48V189.66H168.39V175.93Z" fill="#D1DAFA" stroke="#3A3836" stroke-width="1.74" stroke-linecap="round" stroke-linejoin="round"/>
<path d="M181.39 175.93H175.48V189.66H181.39V175.93Z" fill="#D1DAFA" stroke="#3A3836" stroke-width="1.74" stroke-linecap="round" stroke-linejoin="round"/>
<path d="M356.64 129.53V255.82" stroke="#D1DAFA" stroke-miterlimit="10"/>
<path d="M370.14 129.53V255.82" stroke="#D1DAFA" stroke-miterlimit="10"/>
<path d="M383.64 129.53V266.82" stroke="#D1DAFA" stroke-miterlimit="10"/>
<path d="M255.9 143.67V152.61" stroke="#3A3836" stroke-width="2" stroke-linecap="round" stroke-linejoin="round"/>
<path d="M268.57 143.67V150.61" stroke="#3A3836" stroke-width="2" stroke-linecap="round" stroke-linejoin="round"/>
<path d="M281.23 143.67V150.61" stroke="#3A3836" stroke-width="2" stroke-linecap="round" stroke-linejoin="round"/>
<path d="M293.9 143.67V152.61" stroke="#3A3836" stroke-width="2" stroke-linecap="round" stroke-linejoin="round"/>
<path d="M241.79 90.9399V108.405V124.87" stroke="#3A3836" stroke-width="2" stroke-linecap="round" stroke-linejoin="round"/>
<path d="M310.79 90.9399V124.87" stroke="#3A3836" stroke-width="2" stroke-linecap="round" stroke-linejoin="round"/>
<path d="M285.07 110.56V100.79L276.62 95.91L268.16 100.79V110.56L276.62 115.44L285.07 110.56Z" fill="#FB8B39" stroke="#3A3836" stroke-width="2" stroke-linecap="round" stroke-linejoin="round"/>
<path d="M38.53 311.77V346.91L102.37 336.19V299.64L38.53 311.77Z" fill="white" stroke="#3A3836" stroke-width="2" stroke-linecap="round" stroke-linejoin="round"/>
<path d="M44.96 326.28L56.06 324.41L60.42 315.93L67.49 328.52L74.42 315.62L78.46 319.75L93.05 317.65" fill="white"/>
<path d="M44.96 326.28L56.06 324.41L60.42 315.93L67.49 328.52L74.42 315.62L78.46 319.75L93.05 317.65" stroke="#3A3836" stroke-width="2" stroke-linecap="round" stroke-linejoin="round"/>
<path d="M245.38 368.61H309.09" stroke="#3A3836" stroke-width="2" stroke-linecap="round" stroke-linejoin="round"/>
<path d="M286.49 380.96V392.38" stroke="#3A3836" stroke-width="2" stroke-linecap="round" stroke-linejoin="round"/>
<path d="M296.49 380.96V392.38" stroke="#3A3836" stroke-width="2" stroke-linecap="round" stroke-linejoin="round"/>
<path d="M254.37 381.32C256.132 381.32 257.56 379.892 257.56 378.13C257.56 376.368 256.132 374.94 254.37 374.94C252.608 374.94 251.18 376.368 251.18 378.13C251.18 379.892 252.608 381.32 254.37 381.32Z" fill="white" stroke="#3A3836" stroke-width="2" stroke-linecap="round" stroke-linejoin="round"/>
<path d="M51.98 78.05C52.9189 78.05 53.68 77.2889 53.68 76.35C53.68 75.4111 52.9189 74.65 51.98 74.65C51.0411 74.65 50.28 75.4111 50.28 76.35C50.28 77.2889 51.0411 78.05 51.98 78.05Z" fill="#FB8B39"/>
<path d="M61.98 76.69C62.9189 76.69 63.68 75.9289 63.68 74.99C63.68 74.0512 62.9189 73.29 61.98 73.29C61.0411 73.29 60.28 74.0512 60.28 74.99C60.28 75.9289 61.0411 76.69 61.98 76.69Z" fill="#FB8B39"/>
<path d="M72.98 76.3499C73.9189 76.3499 74.68 75.5888 74.68 74.65C74.68 73.7111 73.9189 72.95 72.98 72.95C72.0411 72.95 71.28 73.7111 71.28 74.65C71.28 75.5888 72.0411 76.3499 72.98 76.3499Z" fill="#FB8B39"/>
<path d="M83.98 78.05C84.9189 78.05 85.68 77.2889 85.68 76.35C85.68 75.4111 84.9189 74.65 83.98 74.65C83.0411 74.65 82.28 75.4111 82.28 76.35C82.28 77.2889 83.0411 78.05 83.98 78.05Z" fill="#FB8B39"/>
<path d="M468.24 67.4207C468.924 67.4356 469.491 66.8927 469.506 66.208C469.521 65.5233 468.978 64.9562 468.294 64.9413C467.609 64.9264 467.042 65.4693 467.027 66.154C467.012 66.8387 467.555 67.4058 468.24 67.4207Z" fill="#FB8B39"/>
<path d="M475.773 66.5806C476.458 66.5955 477.025 66.0526 477.04 65.3679C477.055 64.6832 476.512 64.1161 475.827 64.1012C475.142 64.0863 474.575 64.6293 474.56 65.3139C474.546 65.9986 475.088 66.5657 475.773 66.5806Z" fill="#FB8B39"/>
<path d="M483.306 66.5064C483.991 66.5213 484.558 65.9784 484.573 65.2937C484.588 64.609 484.045 64.0419 483.36 64.027C482.676 64.0121 482.109 64.555 482.094 65.2397C482.079 65.9244 482.622 66.4915 483.306 66.5064Z" fill="#FB8B39"/>
<path d="M490.84 67.9318C491.525 67.9467 492.092 67.4038 492.107 66.7191C492.122 66.0344 491.579 65.4673 490.894 65.4524C490.209 65.4375 489.642 65.9804 489.627 66.6651C489.612 67.3498 490.155 67.9169 490.84 67.9318Z" fill="#FB8B39"/>
<path d="M441.03 197.15V206.08" stroke="#3A3836" stroke-width="2" stroke-linecap="round" stroke-linejoin="round"/>
<path d="M461.03 197.15V206.08" stroke="#3A3836" stroke-width="2" stroke-linecap="round" stroke-linejoin="round"/>
<path d="M481.03 197.15V206.08" stroke="#3A3836" stroke-width="2" stroke-linecap="round" stroke-linejoin="round"/>
<path d="M441.03 224.15V233.08" stroke="#3A3836" stroke-width="2" stroke-linecap="round" stroke-linejoin="round"/>
<path d="M441.03 248.15V257.08" stroke="#3A3836" stroke-width="2" stroke-linecap="round" stroke-linejoin="round"/>
<path d="M461.03 224.15V233.08" stroke="#3A3836" stroke-width="2" stroke-linecap="round" stroke-linejoin="round"/>
<path d="M481.03 224.15V233.08" stroke="#3A3836" stroke-width="2" stroke-linecap="round" stroke-linejoin="round"/>
<path d="M491.49 360.48H471.64V379.13H491.49V360.48Z" fill="white" stroke="#3A3836" stroke-width="2" stroke-linecap="round" stroke-linejoin="round"/>
<g style="mix-blend-mode:multiply">
<path d="M491.49 360.48H471.64V379.13H491.49V360.48Z" fill="#E5E5E5"/>
</g>
<path d="M478.69 253.31H469.04V262.96H478.69V253.31Z" fill="#D1DAFA" stroke="#3A3836" stroke-width="1.74" stroke-linecap="round" stroke-linejoin="round"/>
<path d="M493.02 253.31H483.37V262.96H493.02V253.31Z" fill="#D1DAFA" stroke="#3A3836" stroke-width="1.74" stroke-linecap="round" stroke-linejoin="round"/>
<path d="M478.69 268.39H469.04V278.04H478.69V268.39Z" fill="#D1DAFA" stroke="#3A3836" stroke-width="1.74" stroke-linecap="round" stroke-linejoin="round"/>
<path d="M493.02 268.39H483.37V278.04H493.02V268.39Z" fill="#D1DAFA" stroke="#3A3836" stroke-width="1.74" stroke-linecap="round" stroke-linejoin="round"/>
<path d="M464.21 141.07C464.21 141.07 478.96 136.86 494.32 141.72Z" fill="white"/>
<path d="M464.21 141.07C464.21 141.07 478.96 136.86 494.32 141.72" stroke="#3A3836" stroke-width="2" stroke-linecap="round" stroke-linejoin="round"/>
<path d="M464.21 159.07C464.21 159.07 478.96 154.86 494.32 159.72Z" fill="white"/>
<path d="M464.21 159.07C464.21 159.07 478.96 154.86 494.32 159.72" stroke="#3A3836" stroke-width="2" stroke-linecap="round" stroke-linejoin="round"/>
<g style="mix-blend-mode:multiply">
<path d="M54.67 237.42L37.53 240.42V160.79L54.67 145.79V237.42Z" fill="#E5E5E5"/>
</g>
<g style="mix-blend-mode:multiply">
<path d="M428.23 280.19L399.15 270.19V127.53L428.23 147.53V280.19Z" fill="#E5E5E5"/>
</g>
<g style="mix-blend-mode:multiply">
<path d="M519.05 392.31H501.34V240.38L519.05 248.38V392.31Z" fill="#E5E5E5"/>
</g>
<path d="M107.03 129.01V226.61" stroke="#D1DAFA" stroke-miterlimit="10"/>
<path d="M120.53 132.01V230.62" stroke="#D1DAFA" stroke-miterlimit="10"/>
<path d="M134.03 135.01V223.47" stroke="#D1DAFA" stroke-miterlimit="10"/>
<path d="M146.03 139.01V215.76" stroke="#D1DAFA" stroke-miterlimit="10"/>
<path d="M155.28 210.62V140.54L93.05 124.11V156.54L105.88 160.93V226.61" stroke="#3A3836" stroke-width="2" stroke-linecap="round" stroke-linejoin="round"/>
<path d="M121.17 233.32L155.28 210.62V275.17" stroke="#3A3836" stroke-width="2" stroke-linecap="round" stroke-linejoin="round"/>
<path d="M366.88 70.05L373.88 72.3301L366.88 74.6101L364.6 81.6101L362.32 74.6101L355.32 72.3301L362.32 70.05L364.6 63.05L366.88 70.05Z" fill="white" stroke="#3A3836" stroke-width="2" stroke-miterlimit="10"/>
<path d="M530.23 212.16L534.77 213.63L530.23 215.11L528.75 219.65L527.28 215.11L522.74 213.63L527.28 212.16L528.75 207.62L530.23 212.16Z" fill="white" stroke="#3A3836" stroke-width="1.3" stroke-miterlimit="10"/>
<path d="M29.59 130.53L34.13 132.01L29.59 133.49L28.11 138.03L26.63 133.49L22.09 132.01L26.63 130.53L28.11 126L29.59 130.53Z" fill="white" stroke="#3A3836" stroke-width="1.3" stroke-miterlimit="10"/>
<path d="M243.79 392.26H2" stroke="#3A3836" stroke-width="2" stroke-linecap="round" stroke-linejoin="round"/>
<path d="M519.06 392.31H554" stroke="#3A3836" stroke-width="2" stroke-linecap="round" stroke-linejoin="round"/>
<path d="M165.43 314.72V323.66" stroke="#3A3836" stroke-width="2" stroke-linecap="round" stroke-linejoin="round"/>
<path d="M175.43 314.72V323.66" stroke="#3A3836" stroke-width="2" stroke-linecap="round" stroke-linejoin="round"/>
<path d="M185.43 314.72V323.66" stroke="#3A3836" stroke-width="2" stroke-linecap="round" stroke-linejoin="round"/>
<path d="M165.43 344.72V353.66" stroke="#3A3836" stroke-width="2" stroke-linecap="round" stroke-linejoin="round"/>
<path d="M175.43 344.72V353.66" stroke="#3A3836" stroke-width="2" stroke-linecap="round" stroke-linejoin="round"/>
<path d="M185.43 344.72V353.66" stroke="#3A3836" stroke-width="2" stroke-linecap="round" stroke-linejoin="round"/>
<path d="M165.43 284.72V293.66" stroke="#3A3836" stroke-width="2" stroke-linecap="round" stroke-linejoin="round"/>
<path d="M175.43 284.72V293.66" stroke="#3A3836" stroke-width="2" stroke-linecap="round" stroke-linejoin="round"/>
<path d="M185.43 284.72V293.66" stroke="#3A3836" stroke-width="2" stroke-linecap="round" stroke-linejoin="round"/>
<path d="M277.78 345.11C327.861 345.11 368.46 304.511 368.46 254.43C368.46 204.349 327.861 163.75 277.78 163.75C227.699 163.75 187.1 204.349 187.1 254.43C187.1 304.511 227.699 345.11 277.78 345.11Z" fill="white"/>
<path d="M333.36 204.23C333.225 204.296 333.105 204.388 333.006 204.501C332.907 204.614 332.831 204.746 332.784 204.888C332.736 205.03 332.718 205.181 332.729 205.331C332.741 205.48 332.782 205.626 332.85 205.76C333.146 206.352 333.263 207.017 333.187 207.674C333.11 208.331 332.844 208.952 332.42 209.46C332.226 209.693 332.133 209.994 332.162 210.296C332.19 210.598 332.337 210.876 332.57 211.07C332.803 211.264 333.104 211.357 333.406 211.328C333.708 211.3 333.986 211.153 334.18 210.92C334.884 210.069 335.326 209.032 335.452 207.935C335.578 206.838 335.383 205.728 334.89 204.74C334.753 204.471 334.516 204.267 334.229 204.172C333.943 204.076 333.631 204.097 333.36 204.23V204.23Z" fill="#FF6C37"/>
<path d="M289.53 155.61C270.203 153.128 250.574 156.433 233.126 165.107C215.677 173.781 201.192 187.435 191.504 204.341C181.815 221.247 177.357 240.647 178.694 260.086C180.031 279.526 187.102 298.133 199.014 313.554C210.925 328.974 227.143 340.517 245.614 346.721C264.086 352.925 283.982 353.512 302.788 348.408C321.593 343.304 338.463 332.738 351.263 318.046C364.063 303.355 372.219 285.197 374.7 265.87C376.348 253.038 375.453 240.006 372.065 227.52C368.676 215.034 362.862 203.338 354.953 193.099C347.044 182.86 337.196 174.28 325.97 167.847C314.745 161.415 302.363 157.257 289.53 155.61ZM309.82 217.07C307.99 217.094 306.242 217.833 304.95 219.13L268.4 255.68L260.6 247.89C296.62 211.95 303.11 211.6 309.82 217.07V217.07ZM269.88 256.98L306.35 220.52C306.831 220.034 307.404 219.65 308.037 219.39C308.669 219.131 309.348 219.002 310.031 219.011C310.715 219.021 311.39 219.168 312.015 219.444C312.64 219.72 313.204 220.119 313.671 220.618C314.138 221.117 314.5 221.705 314.735 222.348C314.969 222.99 315.072 223.672 315.036 224.355C315.001 225.038 314.828 225.706 314.528 226.321C314.228 226.935 313.807 227.482 313.29 227.93L274.72 261.81L269.88 256.98ZM272.6 262.67L263.6 264.62C263.492 264.649 263.377 264.641 263.274 264.598C263.171 264.554 263.086 264.477 263.032 264.379C262.977 264.281 262.958 264.168 262.976 264.058C262.993 263.947 263.048 263.846 263.13 263.77L268.42 258.47L272.6 262.67ZM249.6 258.91L259.23 249.28L266.44 256.49L250.19 259.99C250.054 260.027 249.91 260.015 249.782 259.957C249.654 259.899 249.551 259.797 249.49 259.67C249.414 259.553 249.382 259.413 249.398 259.274C249.415 259.135 249.479 259.006 249.58 258.91H249.6ZM219.67 308.66C219.553 308.646 219.442 308.599 219.35 308.525C219.258 308.45 219.189 308.352 219.15 308.24C219.109 308.129 219.102 308.008 219.128 307.893C219.155 307.777 219.215 307.672 219.3 307.59L227.07 299.82L237.07 309.82L219.67 308.66ZM239.56 298.35C239.181 298.536 238.875 298.844 238.694 299.226C238.512 299.607 238.465 300.038 238.56 300.45L240.22 307.56C240.278 307.779 240.26 308.01 240.169 308.217C240.078 308.424 239.92 308.594 239.72 308.7C239.526 308.814 239.299 308.86 239.075 308.829C238.852 308.798 238.646 308.693 238.49 308.53L228.41 298.45L259.28 267.57L274.26 264.35L281.43 271.52C271.13 280.54 257.04 289.56 239.56 298.35ZM282.9 270.21L275.99 263.35L314.57 229.46C314.937 229.163 315.273 228.827 315.57 228.46C314.34 239.44 298.89 255.03 282.9 270.19V270.21ZM312.9 217.15C310.409 214.376 309.04 210.775 309.061 207.047C309.081 203.319 310.488 199.732 313.009 196.985C315.53 194.239 318.983 192.529 322.695 192.19C326.407 191.851 330.113 192.906 333.09 195.15L319.87 208.35C319.685 208.536 319.581 208.788 319.58 209.05C319.584 209.309 319.688 209.556 319.87 209.74L330.11 219.98C327.309 221.367 324.143 221.838 321.06 221.326C317.977 220.815 315.133 219.347 312.93 217.13L312.9 217.15ZM334.06 217.15C333.378 217.821 332.635 218.427 331.84 218.96L321.99 209.03L334.58 196.44C337.175 199.288 338.575 203.025 338.49 206.877C338.404 210.729 336.839 214.4 334.12 217.13L334.06 217.15Z" fill="#FF6C37"/>
</g>
<defs>
<clipPath id="clip0">
<rect width="555.44" height="366.54" fill="white" transform="translate(2 27)"/>
</clipPath>
</defs>
</svg>
